<svg width="17" height="16" viewBox="0 0 17 16" fill="none" xmlns="http://www.w3.org/2000/svg">
    <path d="M14.7541 8.83363C14.6272 8.69819 14.5572 8.52407 14.5572 8.34378C14.5572 8.1635 14.6272 7.98938 14.7541 7.85394L15.7675 6.78519C15.8791 6.66842 15.9485 6.52149 15.9655 6.36549C15.9826 6.20948 15.9465 6.05242 15.8625 5.91683L14.2791 3.34886C14.1959 3.21343 14.0692 3.10607 13.9171 3.0421C13.765 2.97813 13.5953 2.96081 13.432 2.99261L11.9437 3.27464C11.7543 3.31133 11.5572 3.28176 11.3895 3.19152C11.2217 3.10128 11.095 2.9566 11.0333 2.7848L10.5504 1.4266C10.4973 1.27918 10.3961 1.15114 10.2611 1.06058C10.1262 0.970016 9.96426 0.921506 9.79829 0.921908H6.63163C6.45899 0.91346 6.28815 0.95822 6.1452 1.04935C6.00225 1.14048 5.89504 1.27298 5.83996 1.4266L5.39663 2.7848C5.33488 2.9566 5.20819 3.10128 5.04046 3.19152C4.87274 3.28176 4.67559 3.31133 4.48621 3.27464L2.95829 2.99261C2.80356 2.97211 2.64582 2.995 2.50494 3.0584C2.36406 3.12179 2.24635 3.22286 2.16663 3.34886L0.583292 5.91683C0.497127 6.0509 0.458384 6.20709 0.472603 6.36305C0.486822 6.51901 0.553274 6.66677 0.662458 6.78519L1.66788 7.85394C1.79479 7.98938 1.86479 8.1635 1.86479 8.34378C1.86479 8.52407 1.79479 8.69819 1.66788 8.83363L0.662458 9.90238C0.553274 10.0208 0.486822 10.1686 0.472603 10.3245C0.458384 10.4805 0.497127 10.6367 0.583292 10.7707L2.16663 13.3387C2.24983 13.4741 2.37651 13.5815 2.52862 13.6455C2.68072 13.7094 2.85049 13.7268 3.01371 13.695L4.50204 13.4129C4.69142 13.3762 4.88858 13.4058 5.0563 13.496C5.22402 13.5863 5.35071 13.731 5.41246 13.9028L5.89538 15.261C5.95046 15.4146 6.05766 15.5471 6.20061 15.6382C6.34357 15.7293 6.51441 15.7741 6.68704 15.7657H9.85371C10.0197 15.7661 10.1816 15.7175 10.3165 15.627C10.4515 15.5364 10.5527 15.4084 10.6058 15.261L11.0887 13.9028C11.1505 13.731 11.2771 13.5863 11.4449 13.496C11.6126 13.4058 11.8097 13.3762 11.9991 13.4129L13.4875 13.695C13.6507 13.7268 13.8204 13.7094 13.9726 13.6455C14.1247 13.5815 14.2513 13.4741 14.3345 13.3387L15.9179 10.7707C16.0019 10.6351 16.038 10.4781 16.0209 10.3221C16.0039 10.1661 15.9345 10.0191 15.8229 9.90238L14.7541 8.83363ZM13.5745 9.82816L14.2079 10.4961L13.1945 12.1438L12.2604 11.9657C11.6902 11.8564 11.0971 11.9472 10.5936 12.2208C10.0901 12.4945 9.71132 12.9319 9.52913 13.45L9.22829 14.2813H7.20163L6.91663 13.4352C6.73443 12.917 6.35564 12.4796 5.85215 12.206C5.34867 11.9323 4.75555 11.8415 4.18538 11.9508L3.25121 12.1289L2.22204 10.4887L2.85538 9.82074C3.24484 9.41252 3.46016 8.88404 3.46016 8.33636C3.46016 7.78868 3.24484 7.26021 2.85538 6.85199L2.22204 6.18402L3.23538 4.5512L4.16954 4.72933C4.73972 4.8386 5.33284 4.7478 5.83632 4.47416C6.3398 4.20053 6.71859 3.76312 6.90079 3.24495L7.20163 2.40628H9.22829L9.52913 3.25238C9.71132 3.77054 10.0901 4.20795 10.5936 4.48159C11.0971 4.75522 11.6902 4.84602 12.2604 4.73675L13.1945 4.55863L14.2079 6.20628L13.5745 6.87425C13.1894 7.28153 12.9768 7.80694 12.9768 8.3512C12.9768 8.89546 13.1894 9.42087 13.5745 9.82816ZM8.21496 5.37503C7.58865 5.37503 6.97641 5.54915 6.45565 5.87536C5.9349 6.20157 5.52902 6.66522 5.28934 7.20769C5.04966 7.75016 4.98695 8.34708 5.10914 8.92296C5.23133 9.49884 5.53292 10.0278 5.97579 10.443C6.41865 10.8582 6.9829 11.1409 7.59717 11.2555C8.21145 11.37 8.84816 11.3112 9.42679 11.0866C10.0054 10.8619 10.5 10.4813 10.8479 9.99313C11.1959 9.50492 11.3816 8.93095 11.3816 8.34378C11.3816 7.55642 11.048 6.80131 10.4541 6.24456C9.86026 5.68781 9.05481 5.37503 8.21496 5.37503ZM8.21496 9.82816C7.90181 9.82816 7.59568 9.7411 7.33531 9.57799C7.07493 9.41489 6.87199 9.18306 6.75215 8.91183C6.63231 8.64059 6.60096 8.34214 6.66205 8.0542C6.72314 7.76625 6.87394 7.50176 7.09537 7.29417C7.31681 7.08658 7.59893 6.9452 7.90607 6.88793C8.2132 6.83065 8.53156 6.86005 8.82087 6.9724C9.11019 7.08475 9.35747 7.275 9.53145 7.51911C9.70543 7.76321 9.79829 8.0502 9.79829 8.34378C9.79829 8.73746 9.63148 9.11502 9.33454 9.39339C9.03761 9.67177 8.63488 9.82816 8.21496 9.82816Z" fill="#334D6E" fill-opacity="0.5"/>
</svg>
