<svg width="17" height="16" viewBox="0 0 17 16" fill="none" xmlns="http://www.w3.org/2000/svg">
    <path d="M8.00002 14.6667H1.99999C1.63198 14.6667 1.33334 14.368 1.33334 14V2.00002C1.33334 1.63202 1.63202 1.33337 1.99999 1.33337H8.00002C8.36868 1.33337 8.66667 1.03538 8.66667 0.666715C8.66667 0.298053 8.36868 0 8.00002 0H1.99999C0.897325 0 0 0.897356 0 2.00002V14C0 15.1027 0.897325 16 1.99999 16H8.00002C8.36868 16 8.66667 15.702 8.66667 15.3333C8.66667 14.9647 8.36868 14.6667 8.00002 14.6667Z" fill="#334D6E" fill-opacity="0.5"/>
    <path d="M15.8543 7.52531L11.801 3.5253C11.5397 3.26663 11.117 3.26999 10.8583 3.53198C10.5997 3.79398 10.6023 4.21597 10.865 4.47464L13.7617 7.3333H5.99966C5.631 7.3333 5.33301 7.63129 5.33301 7.99995C5.33301 8.36861 5.631 8.66663 5.99966 8.66663H13.7617L10.865 11.5253C10.6024 11.784 10.6004 12.206 10.8583 12.468C10.989 12.6 11.161 12.6666 11.333 12.6666C11.5023 12.6666 11.6717 12.6026 11.801 12.4746L15.8543 8.47459C15.981 8.34927 16.053 8.17858 16.053 7.99992C16.053 7.82133 15.9817 7.65132 15.8543 7.52531Z" fill="#334D6E" fill-opacity="0.5"/>
</svg>
