<svg width="14" height="16" viewBox="0 0 14 16" fill="none" xmlns="http://www.w3.org/2000/svg">
    <path fill-rule="evenodd" clip-rule="evenodd" d="M0 3.63636C0 3.2347 0.313401 2.90909 0.7 2.90909H13.3C13.6866 2.90909 14 3.2347 14 3.63636C14 4.03803 13.6866 4.36364 13.3 4.36364H0.7C0.313401 4.36364 0 4.03803 0 3.63636Z" fill="white"/>
    <path fill-rule="evenodd" clip-rule="evenodd" d="M0 3.63636C0 3.2347 0.313401 2.90909 0.7 2.90909H13.3C13.6866 2.90909 14 3.2347 14 3.63636C14 4.03803 13.6866 4.36364 13.3 4.36364H0.7C0.313401 4.36364 0 4.03803 0 3.63636Z" fill="#334D6E" fill-opacity="0.5"/>
    <path fill-rule="evenodd" clip-rule="evenodd" d="M5.6 1.45455C5.41435 1.45455 5.2363 1.53117 5.10503 1.66756C4.97375 1.80395 4.9 1.98893 4.9 2.18182V2.90909H9.1V2.18182C9.1 1.98893 9.02625 1.80395 8.89497 1.66756C8.7637 1.53117 8.58565 1.45455 8.4 1.45455H5.6ZM10.5 2.90909V2.18182C10.5 1.60316 10.2787 1.04821 9.88492 0.63904C9.4911 0.229869 8.95695 0 8.4 0H5.6C5.04305 0 4.5089 0.229869 4.11508 0.63904C3.72125 1.04821 3.5 1.60316 3.5 2.18182V2.90909H2.1C1.7134 2.90909 1.4 3.2347 1.4 3.63636V13.8182C1.4 14.3968 1.62125 14.9518 2.01508 15.361C2.4089 15.7701 2.94304 16 3.5 16H10.5C11.057 16 11.5911 15.7701 11.9849 15.361C12.3787 14.9518 12.6 14.3968 12.6 13.8182V3.63636C12.6 3.2347 12.2866 2.90909 11.9 2.90909H10.5ZM2.8 4.36364V13.8182C2.8 14.0111 2.87375 14.1961 3.00503 14.3324C3.1363 14.4688 3.31435 14.5455 3.5 14.5455H10.5C10.6857 14.5455 10.8637 14.4688 10.995 14.3324C11.1263 14.1961 11.2 14.0111 11.2 13.8182V4.36364H2.8Z" fill="white"/>
    <path fill-rule="evenodd" clip-rule="evenodd" d="M5.6 1.45455C5.41435 1.45455 5.2363 1.53117 5.10503 1.66756C4.97375 1.80395 4.9 1.98893 4.9 2.18182V2.90909H9.1V2.18182C9.1 1.98893 9.02625 1.80395 8.89497 1.66756C8.7637 1.53117 8.58565 1.45455 8.4 1.45455H5.6ZM10.5 2.90909V2.18182C10.5 1.60316 10.2787 1.04821 9.88492 0.63904C9.4911 0.229869 8.95695 0 8.4 0H5.6C5.04305 0 4.5089 0.229869 4.11508 0.63904C3.72125 1.04821 3.5 1.60316 3.5 2.18182V2.90909H2.1C1.7134 2.90909 1.4 3.2347 1.4 3.63636V13.8182C1.4 14.3968 1.62125 14.9518 2.01508 15.361C2.4089 15.7701 2.94304 16 3.5 16H10.5C11.057 16 11.5911 15.7701 11.9849 15.361C12.3787 14.9518 12.6 14.3968 12.6 13.8182V3.63636C12.6 3.2347 12.2866 2.90909 11.9 2.90909H10.5ZM2.8 4.36364V13.8182C2.8 14.0111 2.87375 14.1961 3.00503 14.3324C3.1363 14.4688 3.31435 14.5455 3.5 14.5455H10.5C10.6857 14.5455 10.8637 14.4688 10.995 14.3324C11.1263 14.1961 11.2 14.0111 11.2 13.8182V4.36364H2.8Z" fill="#334D6E" fill-opacity="0.5"/>
    <path fill-rule="evenodd" clip-rule="evenodd" d="M5.6 6.54545C5.9866 6.54545 6.3 6.87107 6.3 7.27273V11.6364C6.3 12.038 5.9866 12.3636 5.6 12.3636C5.2134 12.3636 4.9 12.038 4.9 11.6364V7.27273C4.9 6.87107 5.2134 6.54545 5.6 6.54545Z" fill="white"/>
    <path fill-rule="evenodd" clip-rule="evenodd" d="M5.6 6.54545C5.9866 6.54545 6.3 6.87107 6.3 7.27273V11.6364C6.3 12.038 5.9866 12.3636 5.6 12.3636C5.2134 12.3636 4.9 12.038 4.9 11.6364V7.27273C4.9 6.87107 5.2134 6.54545 5.6 6.54545Z" fill="#334D6E" fill-opacity="0.5"/>
    <path fill-rule="evenodd" clip-rule="evenodd" d="M8.4 6.54545C8.7866 6.54545 9.1 6.87107 9.1 7.27273V11.6364C9.1 12.038 8.7866 12.3636 8.4 12.3636C8.0134 12.3636 7.7 12.038 7.7 11.6364V7.27273C7.7 6.87107 8.0134 6.54545 8.4 6.54545Z" fill="white"/>
    <path fill-rule="evenodd" clip-rule="evenodd" d="M8.4 6.54545C8.7866 6.54545 9.1 6.87107 9.1 7.27273V11.6364C9.1 12.038 8.7866 12.3636 8.4 12.3636C8.0134 12.3636 7.7 12.038 7.7 11.6364V7.27273C7.7 6.87107 8.0134 6.54545 8.4 6.54545Z" fill="#334D6E" fill-opacity="0.5"/>
</svg>
